<?xml version="1.0" encoding="iso-8859-1"?>
<!-- Generator: Adobe Illustrator 19.0.0, SVG Export Plug-In . SVG Version: 6.00 Build 0)  -->
<svg xmlns="http://www.w3.org/2000/svg" xmlns:xlink="http://www.w3.org/1999/xlink" version="1.1" id="Capa_1" x="0px" y="0px" viewBox="0 0 479.998 479.998" style="enable-background:new 0 0 479.998 479.998;" xml:space="preserve" width="512px" height="512px">
<g>
	<g>
		<path d="M447.999,436.688V0h-16v432h-48V40c0-4.418-3.582-8-8-8h-56V8c-0.002-4.418-3.585-7.999-8.003-7.997    c-0.406,0-0.812,0.031-1.213,0.093l-208,32c-3.902,0.6-6.782,3.956-6.784,7.904v392h-48V0h-16v436.688L2.343,466.344    l11.312,11.312L43.311,448h60.08l207.392,31.904c4.367,0.672,8.451-2.324,9.123-6.691c0.062-0.401,0.093-0.807,0.093-1.213v-24    h116.688l29.656,29.656l11.312-11.312L447.999,436.688z M303.999,462.672l-192-29.536V46.864l192-29.536V462.672z M367.999,432    h-48V48h48V432z" fill="#666666"/>
	</g>
</g>
<g>
	<g>
		<path d="M263.999,216c-13.255,0-24,10.745-24,24s10.745,24,24,24s24-10.745,24-24S277.254,216,263.999,216z M263.999,248    c-4.418,0-8-3.582-8-8s3.582-8,8-8s8,3.582,8,8S268.417,248,263.999,248z" fill="#666666"/>
	</g>
</g>
<g>
</g>
<g>
</g>
<g>
</g>
<g>
</g>
<g>
</g>
<g>
</g>
<g>
</g>
<g>
</g>
<g>
</g>
<g>
</g>
<g>
</g>
<g>
</g>
<g>
</g>
<g>
</g>
<g>
</g>
</svg>
